<?xml version="1.0" encoding="UTF-8" standalone="no"?>
<!DOCTYPE svg PUBLIC "-//W3C//DTD SVG 1.1//EN" "http://www.w3.org/Graphics/SVG/1.1/DTD/svg11.dtd">
<svg width="100%" height="100%" viewBox="0 0 500 500" version="1.1" xmlns="http://www.w3.org/2000/svg" xmlns:xlink="http://www.w3.org/1999/xlink" xml:space="preserve" xmlns:serif="http://www.serif.com/" style="fill-rule:evenodd;clip-rule:evenodd;stroke-linejoin:round;stroke-miterlimit:2;">
    <g transform="matrix(0.613615,0,0,0.613615,-663.535,1.55835)">
        <path d="M1399.18,593.363L1404.48,584.367C1363.21,536.85 1289.86,475.985 1299.21,347.222C1304.25,331.238 1319.1,313.064 1341.36,315.32C1364.28,402.217 1398,468.196 1447.38,506.418C1456.58,491.547 1468.18,474.306 1479.36,456.817C1440.04,449.74 1424.36,435.146 1408.01,407.395C1397.93,392.508 1390.08,377.55 1384.77,360.308C1363.96,292.709 1391.27,217.196 1439.05,167.776C1480.95,124.448 1559.99,91.723 1611.4,137.81C1615.38,139.803 1619.58,136.868 1622.18,134.07C1630.47,125.153 1637.96,115.505 1646.27,106.606C1664.58,87.003 1691.86,60.314 1711.77,42.349C1719.84,35.077 1728.13,28.053 1736.66,21.332C1737.75,20.471 1739.12,19.577 1740.5,19.708C1744.08,20.047 1745.09,23.442 1745.62,26.191C1745.95,27.91 1746.07,29.678 1746,31.427C1745.87,35.023 1745.33,38.593 1745.03,42.178C1700.52,104.236 1652.29,170.692 1599.28,228.889C1595.22,235.058 1590.11,238.185 1581.68,231.799C1562.58,203.972 1526.38,184.7 1492.56,195.209C1484.62,197.675 1476.63,201.78 1470.94,208.032C1465.05,214.502 1459.09,226.083 1456.08,234.187C1440.6,275.795 1451.06,322.769 1474.75,359.091C1487.52,375.305 1522.1,384.477 1522.1,384.477C1531.09,354.815 1689.91,130.733 1758.2,73.062C1771.77,72.459 1774.24,87.613 1773.23,98.181C1773.05,100.038 1771.37,107.211 1769.39,108.387C1637.73,253.49 1565.44,383.996 1565.44,383.996C1641.92,385.834 1695.08,459.674 1703.69,530.493C1705.85,548.229 1705.33,568.03 1703.13,585.723C1695.48,647.454 1655.27,697.805 1613.43,740.989C1572.36,783.385 1509.68,802.834 1453.43,781.096C1414.27,765.962 1396,722.652 1371.18,692.421C1358.68,712.032 1344.09,730.589 1326.19,745.565C1313.12,756.508 1296.87,764.19 1279.71,765.399C1247.21,767.69 1215.41,743.92 1207.78,712.373C1197.03,667.951 1210.69,619.185 1239.48,584.282C1263.58,555.056 1305.45,538.003 1342.17,552.444C1364.17,561.093 1382.66,576.926 1399.18,593.363M1478.87,523.691C1492.55,547.004 1522.76,548.921 1565.6,543.638C1585.91,561.276 1589.66,587.016 1548.68,626.431C1483.96,643.78 1444.33,615.162 1429.81,603.11C1426.08,607.627 1424.02,609.172 1419.91,615.771C1430.05,642.064 1443.1,667.652 1462.18,688.664C1473.81,701.467 1490.45,708.809 1507.08,712.406C1548.99,721.473 1601.97,716.45 1626.53,676.277C1657.95,624.898 1648.46,559.495 1618.83,509.751C1599.13,476.698 1560.29,452.954 1521.2,456.436L1478.87,523.691M1353.09,671.477C1346.88,679.569 1340.42,685.234 1331.82,690.671C1329.08,692.401 1326.17,693.976 1323.06,694.887C1292.94,703.713 1273.3,671.805 1264.56,648.208C1261.2,639.14 1262.41,628.973 1266.66,620.552C1267.69,618.503 1270.09,615.826 1272.64,615.541C1281.37,614.564 1288.69,618.839 1295.97,622.959C1309.92,630.856 1312.04,631.737 1324.78,641.513C1335.5,649.744 1347.78,658.35 1353.09,671.477"/>
    </g>
</svg>
